<svg width="394" height="398" viewBox="0 0 394 398" fill="none" xmlns="http://www.w3.org/2000/svg">
<path d="M225 0L228 3L225 6" fill="black"/>
<path d="M191 199C238 199 178 3 225 3" stroke="black" stroke-width="6"/>
<path d="M191 195.5L187.5 199L191 202.5" fill="black"/>
<path d="M191 195.5L187.5 199L191 202.5" stroke="white"/>
<path d="M345 68L348 71L345 74" fill="black"/>
<path d="M191 199C298 199 238 71 345 71" stroke="black" stroke-width="6"/>
<path d="M191 195.5L187.5 199L191 202.5" fill="black"/>
<path d="M191 195.5L187.5 199L191 202.5" stroke="white"/>
<path d="M391 196L394 199L391 202" fill="black"/>
<path d="M191 199C321 199 261 199 391 199" stroke="black" stroke-width="6"/>
<path d="M191 195.5L187.5 199L191 202.5" fill="black"/>
<path d="M191 195.5L187.5 199L191 202.5" stroke="white"/>
<path d="M345 324L348 327L345 330" fill="black"/>
<path d="M191 199C298 199 238 327 345 327" stroke="black" stroke-width="6"/>
<path d="M191 195.5L187.5 199L191 202.5" fill="black"/>
<path d="M191 195.5L187.5 199L191 202.5" stroke="white"/>
<path d="M225 392L228 395L225 398" fill="black"/>
<path d="M191 199C238 199 178 395 225 395" stroke="black" stroke-width="6"/>
<path d="M191 195.5L187.5 199L191 202.5" fill="black"/>
<path d="M191 195.5L187.5 199L191 202.5" stroke="white"/>
<path d="M91 370L88 373L91 376" fill="black"/>
<path d="M191 199C111 199 171 373 91 373" stroke="black" stroke-width="6"/>
<path d="M191 195.5L194.5 199L191 202.5" fill="black"/>
<path d="M191 195.5L194.5 199L191 202.5" stroke="white"/>
<path d="M3 264L0 267L3 270" fill="black"/>
<path d="M191 199C67 199 127 267 3 267" stroke="black" stroke-width="6"/>
<path d="M191 195.5L194.5 199L191 202.5" fill="black"/>
<path d="M191 195.5L194.5 199L191 202.5" stroke="white"/>
<path d="M3 128L0 131L3 134" fill="black"/>
<path d="M191 199C67 199 127 131 3 131" stroke="black" stroke-width="6"/>
<path d="M191 195.5L194.5 199L191 202.5" fill="black"/>
<path d="M191 195.5L194.5 199L191 202.5" stroke="white"/>
<path d="M91 22L88 25L91 28" fill="black"/>
<path d="M191 199C111 199 171 25 91 25" stroke="black" stroke-width="6"/>
<path d="M191 195.5L194.5 199L191 202.5" fill="black"/>
<path d="M191 195.5L194.5 199L191 202.5" stroke="white"/>
<g filter="url(#filter0_d)">
<g clip-path="url(#clip0)">
<path d="M209.332 210.703V219.326C209.332 219.543 209.324 219.759 209.306 219.973C208.977 224.204 205.439 227.534 201.123 227.534H174.866C170.548 227.534 167.008 224.2 166.682 219.966C166.666 219.754 166.658 219.541 166.658 219.326V210.703H209.332Z" fill="#FF5656"/>
<path d="M209.332 210.703V219.326C209.332 219.543 209.324 219.759 209.306 219.973C207.523 219.444 205.846 218.592 204.33 217.436C203.72 218.248 203.015 218.998 202.219 219.672C199.278 222.162 195.235 223.533 190.834 223.533H185.156C180.755 223.533 176.71 222.162 173.771 219.673C172.973 218.998 172.268 218.246 171.656 217.433C170.182 218.557 168.5 219.423 166.682 219.966C166.666 219.754 166.658 219.541 166.658 219.326V210.703H209.332Z" fill="#F72D2D"/>
<path d="M227.066 207.941C226.662 209.818 225.881 211.534 224.814 213.018C224.097 214.015 223.252 214.908 222.303 215.675C219.943 217.579 216.95 218.7 213.74 218.7C210.583 218.7 207.677 217.627 205.367 215.825C202.165 213.33 200.106 209.437 200.106 205.066V205.02L200.216 172.935C200.234 167.887 206.402 165.451 209.864 169.121L215.514 175.114L218.931 178.74C221.08 181.019 222.86 183.565 224.249 186.292C227.61 192.885 228.666 200.522 227.066 207.941V207.941Z" fill="#A46244"/>
<path d="M216.416 181.089V185.962C216.416 188.339 215.962 190.66 215.066 192.861C214.171 195.062 212.876 197.041 211.216 198.743C209.958 200.034 208.96 201.53 208.255 203.187C207.488 204.993 207.099 206.902 207.099 208.859C207.099 211.391 206.501 213.76 205.367 215.825C202.164 213.33 200.106 209.437 200.106 205.066V205.02L200.216 172.935C200.233 167.887 206.402 165.451 209.864 169.121L215.513 175.114C216.099 177.003 216.416 179.011 216.416 181.089V181.089Z" fill="#8C482C"/>
<path d="M227.066 207.94C226.661 209.817 225.881 211.534 224.814 213.018C219.328 211 215.414 205.729 215.414 199.543C215.414 193.572 219.061 188.453 224.248 186.29C227.61 192.886 228.666 200.523 227.066 207.94V207.94Z" fill="#235872"/>
<path d="M175.883 205.019V205.067C175.883 212.592 169.782 218.699 162.25 218.699C159.04 218.699 156.046 217.578 153.687 215.673C151.327 213.768 149.601 211.078 148.924 207.94C148.367 205.36 148.132 202.752 148.204 200.173C148.423 192.271 151.516 184.62 157.059 178.74L163.68 171.717L166.126 169.122C169.588 165.452 175.756 167.888 175.774 172.934L175.883 205.019Z" fill="#A46244"/>
<path d="M168.073 183.192C168.073 192.685 160.377 200.381 150.884 200.381C149.973 200.381 149.078 200.309 148.204 200.173C148.423 192.271 151.516 184.62 157.059 178.74L163.68 171.717C166.412 174.76 168.073 178.783 168.073 183.192Z" fill="#235872"/>
<path d="M214.505 181.088V185.961C214.505 188.1 214.088 190.197 213.297 192.141C212.505 194.087 211.34 195.88 209.848 197.41C208.416 198.878 207.286 200.588 206.497 202.44C205.642 204.452 205.189 206.633 205.189 208.86C205.189 216.788 198.762 221.623 190.834 221.623H185.155C177.228 221.623 170.801 216.788 170.801 208.86C170.801 206.752 170.395 204.687 169.626 202.764C169.616 202.736 169.603 202.708 169.592 202.679C168.799 200.734 167.635 198.941 166.142 197.41C163.156 194.348 161.484 190.24 161.484 185.961V181.088C161.484 171.011 169.653 162.842 179.73 162.842H196.259C206.336 162.842 214.505 171.011 214.505 181.088V181.088Z" fill="#FFF0D0"/>
<path d="M214.505 181.089V185.96C214.505 188.1 214.088 190.197 213.297 192.141C212.505 194.087 211.34 195.88 209.848 197.411C208.416 198.878 207.286 200.589 206.497 202.439C205.642 204.453 205.189 206.633 205.189 208.86C205.189 212.824 203.582 216.015 200.985 218.214C198.386 220.413 194.797 221.622 190.834 221.622H185.663C189.628 221.622 193.216 220.413 195.814 218.214C198.412 216.015 200.019 212.824 200.019 208.86C200.019 206.633 200.472 204.453 201.327 202.439C202.116 200.589 203.246 198.878 204.678 197.411C206.17 195.88 207.335 194.087 208.126 192.141C208.918 190.197 209.335 188.1 209.335 185.96V181.089C209.335 171.012 201.167 162.843 191.089 162.843H196.259C206.337 162.843 214.505 171.012 214.505 181.089V181.089Z" fill="#EAD2C1"/>
<path d="M182.824 162.842V181.125C182.824 188.586 179.158 195.553 173.051 199.841C171.849 200.687 170.674 201.658 169.626 202.764C169.616 202.736 169.603 202.708 169.592 202.679C168.799 200.734 167.635 198.941 166.142 197.41C163.156 194.348 161.484 190.239 161.484 185.961V181.088C161.484 171.01 169.653 162.842 179.731 162.842H182.824Z" fill="#C87D5B"/>
<path d="M214.505 181.089V185.96C214.505 188.1 214.088 190.197 213.297 192.141C212.505 194.087 211.34 195.88 209.848 197.411C208.416 198.878 207.286 200.589 206.497 202.439C205.531 201.466 204.47 200.601 203.388 199.842C203.237 199.737 203.088 199.628 202.94 199.518C197.103 195.208 193.614 188.401 193.614 181.126V162.843H196.259C206.337 162.843 214.505 171.012 214.505 181.089V181.089Z" fill="#C87D5B"/>
<path d="M214.505 181.089V185.96C214.505 188.1 214.088 190.197 213.297 192.141C212.505 194.087 211.34 195.88 209.848 197.411C208.416 198.878 207.286 200.589 206.497 202.439C205.531 201.466 204.47 200.601 203.387 199.842C203.237 199.737 203.088 199.628 202.94 199.518C203.456 198.773 204.038 198.068 204.678 197.411C206.17 195.88 207.335 194.087 208.126 192.141C208.918 190.197 209.335 188.1 209.335 185.96V181.089C209.335 171.868 202.496 164.246 193.614 163.018C192.789 162.901 191.945 162.842 191.089 162.842H196.259C206.337 162.843 214.505 171.012 214.505 181.089V181.089Z" fill="#A46244"/>
<path d="M188.327 208.942H187.662C184.29 208.942 181.556 206.208 181.556 202.835C181.556 200.909 183.117 199.347 185.044 199.347H190.945C192.872 199.347 194.434 200.909 194.434 202.835C194.434 206.208 191.7 208.942 188.327 208.942V208.942Z" fill="#235872"/>
<path d="M205.046 181.534C205.046 183.566 203.398 185.214 201.366 185.214C199.333 185.214 197.685 183.566 197.685 181.534C197.685 179.501 199.333 177.853 201.366 177.853C203.398 177.853 205.046 179.501 205.046 181.534V181.534Z" fill="#235872"/>
<path d="M178.304 181.534C178.304 183.566 176.656 185.214 174.624 185.214C172.591 185.214 170.943 183.566 170.943 181.534C170.943 179.501 172.591 177.853 174.624 177.853C176.656 177.853 178.304 179.501 178.304 181.534Z" fill="#235872"/>
<path d="M196.351 233.278C196.351 237.441 193.186 240.865 189.13 241.275C188.587 241.329 188.039 241.329 187.497 241.275C183.441 240.865 180.276 237.441 180.276 233.278C180.276 228.839 183.874 225.24 188.313 225.24C192.752 225.24 196.351 228.839 196.351 233.278Z" fill="#FFDF4A"/>
<path d="M196.351 233.277C196.351 237.441 193.186 240.865 189.13 241.275C188.861 241.301 188.589 241.315 188.313 241.315C188.038 241.315 187.765 241.301 187.497 241.275C187.233 241.248 186.973 241.209 186.716 241.157C190.39 240.417 193.157 237.171 193.157 233.277C193.157 229.386 190.39 226.14 186.716 225.4C187.233 225.295 187.767 225.241 188.313 225.241C192.752 225.241 196.351 228.839 196.351 233.277V233.277Z" fill="#FFBD48"/>
<path d="M195.764 235.145H180.862C179.924 235.145 179.163 234.384 179.163 233.445C179.163 232.507 179.923 231.745 180.862 231.745H195.764C196.703 231.745 197.464 232.507 197.464 233.445C197.464 234.384 196.703 235.145 195.764 235.145V235.145Z" fill="#FFF3C1"/>
<path d="M219.804 177.917L212.047 169.688C212.004 169.642 211.958 169.602 211.91 169.565C208.363 164.763 202.666 161.641 196.259 161.641H179.731C173.329 161.641 167.641 164.751 164.095 169.538C164.061 169.566 164.028 169.597 163.997 169.629L156.185 177.917C154.965 179.211 153.834 180.622 152.824 182.108C152.452 182.657 152.594 183.404 153.143 183.777C153.35 183.917 153.585 183.984 153.817 183.984C154.201 183.984 154.579 183.8 154.812 183.458C155.75 182.077 156.8 180.767 157.934 179.564L160.834 176.488C160.474 177.963 160.283 179.504 160.283 181.088V185.961C160.283 188.916 161.011 191.766 162.379 194.302C159.373 197.411 155.229 199.18 150.884 199.18C150.412 199.18 149.938 199.156 149.467 199.115C149.71 195.291 150.644 191.512 152.244 188.016C152.521 187.413 152.256 186.7 151.653 186.424C151.05 186.148 150.336 186.412 150.06 187.015C147.044 193.6 146.224 201.121 147.749 208.193C148.461 211.497 150.302 214.485 152.931 216.608C155.561 218.731 158.87 219.901 162.25 219.901C163.345 219.901 164.42 219.782 165.462 219.554C165.584 224.637 169.753 228.735 174.865 228.735H180.267C179.878 229.425 179.573 230.171 179.369 230.963C178.527 231.471 177.961 232.392 177.961 233.446C177.961 234.546 178.577 235.505 179.483 235.997C180.566 239.525 183.668 242.096 187.377 242.47C187.687 242.501 188 242.517 188.313 242.517C188.626 242.517 188.939 242.501 189.251 242.47C192.959 242.096 196.06 239.525 197.143 235.998C198.049 235.506 198.665 234.546 198.665 233.446C198.665 232.393 198.099 231.471 197.257 230.963C197.053 230.172 196.749 229.425 196.358 228.736H201.124C206.236 228.736 210.406 224.638 210.528 219.554C211.569 219.782 212.645 219.901 213.739 219.901C214.583 219.901 215.434 219.827 216.268 219.684C216.922 219.571 217.361 218.95 217.248 218.296C217.135 217.642 216.515 217.203 215.86 217.316C215.161 217.437 214.447 217.498 213.739 217.498C210.601 217.498 207.654 216.348 205.36 214.247C206.041 212.609 206.39 210.8 206.39 208.86C206.39 206.807 206.798 204.805 207.603 202.91C208.343 201.171 209.388 199.602 210.708 198.249C212.303 196.612 213.549 194.71 214.409 192.594C215.226 190.588 215.661 188.469 215.702 186.297C215.715 185.634 215.187 185.086 214.524 185.073C213.858 185.059 213.313 185.588 213.3 186.252C213.264 188.127 212.889 189.956 212.184 191.688C211.44 193.515 210.365 195.158 208.987 196.572C207.853 197.735 206.895 199.036 206.125 200.453C205.491 199.904 204.807 199.371 204.078 198.858C198.278 194.785 194.815 188.156 194.815 181.125V164.043H196.259C205.634 164.043 213.28 171.67 213.303 181.046C213.305 181.708 213.842 182.244 214.505 182.244H214.508C215.171 182.243 215.708 181.703 215.706 181.04C215.702 179.472 215.51 177.947 215.153 176.486L218.056 179.564C219.835 181.452 221.352 183.529 222.592 185.741C217.464 188.404 214.213 193.692 214.213 199.543C214.213 205.475 217.64 210.893 222.883 213.49C222.176 214.253 221.37 214.934 220.473 215.513C219.916 215.873 219.755 216.616 220.114 217.174C220.344 217.53 220.731 217.724 221.125 217.724C221.348 217.724 221.574 217.662 221.775 217.532C225.109 215.381 227.405 212.065 228.241 208.193C230.584 197.325 227.43 186.006 219.804 177.917V177.917ZM179.731 164.043H181.623V181.125C181.623 188.156 178.16 194.785 172.36 198.858C171.513 199.454 170.726 200.077 170.007 200.721C169.214 199.2 168.208 197.808 167.002 196.571C164.218 193.716 162.685 189.948 162.685 185.961V181.088C162.685 171.69 170.332 164.043 179.731 164.043ZM150.097 207.686C149.66 205.659 149.431 203.591 149.405 201.521C149.898 201.561 150.391 201.582 150.884 201.582C155.687 201.582 160.278 199.703 163.698 196.383C164.179 197.035 164.707 197.659 165.282 198.248C166.658 199.66 167.734 201.303 168.48 203.132L168.493 203.164C168.498 203.181 168.504 203.196 168.51 203.211C169.233 205.017 169.6 206.918 169.6 208.86C169.6 210.8 169.949 212.609 170.629 214.247C168.335 216.348 165.388 217.498 162.25 217.498C156.434 217.498 151.324 213.371 150.097 207.686V207.686ZM194.582 230.544H182.045C183.111 228.099 185.553 226.442 188.313 226.442C191.074 226.442 193.516 228.099 194.582 230.544ZM180.862 233.944C180.588 233.944 180.364 233.72 180.364 233.445C180.364 233.17 180.587 232.946 180.862 232.946H195.764C196.039 232.946 196.262 233.17 196.262 233.445C196.262 233.72 196.039 233.944 195.764 233.944H180.862ZM189.01 240.08C188.548 240.126 188.079 240.126 187.618 240.08C185.26 239.841 183.233 238.403 182.202 236.347H187.112V236.997C187.112 237.66 187.65 238.198 188.313 238.198C188.977 238.198 189.515 237.66 189.515 236.997V236.347H194.425C193.393 238.403 191.367 239.841 189.01 240.08V240.08ZM208.131 218.809V219.326C208.131 223.19 204.988 226.333 201.124 226.333H194.401C192.762 224.897 190.62 224.039 188.313 224.039C186.006 224.039 183.865 224.897 182.226 226.333H174.866C171.002 226.333 167.859 223.19 167.859 219.326V218.808C169.277 218.23 170.604 217.429 171.796 216.423C172.462 217.416 173.274 218.323 174.229 219.131C177.041 221.512 180.922 222.824 185.155 222.824H190.834C195.068 222.824 198.948 221.512 201.76 219.131C202.716 218.323 203.528 217.416 204.193 216.423C205.386 217.43 206.712 218.23 208.131 218.809V218.809ZM202.697 200.824C203.57 201.438 204.37 202.083 205.084 202.746C204.356 204.708 203.987 206.76 203.987 208.86C203.987 215.667 198.578 220.421 190.834 220.421H185.155C177.411 220.421 172.002 215.667 172.002 208.86C172.002 206.876 171.672 204.93 171.02 203.064C171.817 202.288 172.729 201.536 173.741 200.824C180.181 196.302 184.025 188.938 184.025 181.125V164.043H192.412V181.125C192.412 188.938 196.257 196.302 202.697 200.824V200.824ZM225.892 207.686C225.594 209.066 225.073 210.361 224.36 211.532C219.694 209.423 216.615 204.713 216.615 199.543C216.615 194.603 219.357 190.137 223.683 187.882C226.515 193.988 227.348 200.93 225.892 207.686V207.686Z" fill="black"/>
<path d="M185.044 198.146C182.458 198.146 180.354 200.25 180.354 202.835C180.354 206.571 183.172 209.659 186.793 210.09V215.385C185.188 214.983 183.861 213.791 183.318 212.169C183.107 211.54 182.426 211.201 181.797 211.411C181.168 211.622 180.829 212.303 181.04 212.932C182.043 215.925 184.838 217.936 187.994 217.936C191.152 217.936 193.946 215.925 194.949 212.932C195.16 212.303 194.821 211.622 194.192 211.411C193.562 211.2 192.882 211.539 192.671 212.169C192.128 213.791 190.801 214.982 189.196 215.384V210.09C192.817 209.659 195.635 206.571 195.635 202.835C195.635 200.249 193.531 198.146 190.945 198.146H185.044ZM193.233 202.835C193.233 205.54 191.032 207.741 188.327 207.741H187.662C184.957 207.741 182.757 205.54 182.757 202.835C182.757 201.574 183.783 200.548 185.044 200.548H190.945C192.207 200.548 193.233 201.574 193.233 202.835Z" fill="black"/>
<path d="M196.484 181.534C196.484 184.225 198.674 186.415 201.366 186.415C204.058 186.415 206.247 184.225 206.247 181.534C206.247 178.842 204.058 176.652 201.366 176.652C198.674 176.652 196.484 178.842 196.484 181.534V181.534ZM203.844 181.534C203.844 182.901 202.732 184.012 201.366 184.012C199.999 184.012 198.886 182.901 198.886 181.534C198.886 180.167 199.999 179.055 201.366 179.055C202.732 179.055 203.844 180.167 203.844 181.534V181.534Z" fill="black"/>
<path d="M174.624 186.415C177.316 186.415 179.505 184.225 179.505 181.534C179.505 178.842 177.316 176.652 174.624 176.652C171.932 176.652 169.742 178.842 169.742 181.534C169.742 184.225 171.932 186.415 174.624 186.415ZM174.624 179.055C175.991 179.055 177.102 180.167 177.102 181.534C177.102 182.901 175.991 184.012 174.624 184.012C173.257 184.012 172.145 182.901 172.145 181.534C172.145 180.167 173.257 179.055 174.624 179.055Z" fill="black"/>
</g>
</g>
<defs>
<filter id="filter0_d" x="143" y="161" width="90" height="90" filterUnits="userSpaceOnUse" color-interpolation-filters="sRGB">
<feFlood flood-opacity="0" result="BackgroundImageFix"/>
<feColorMatrix in="SourceAlpha" type="matrix" values="0 0 0 0 0 0 0 0 0 0 0 0 0 0 0 0 0 0 127 0"/>
<feOffset dy="4"/>
<feGaussianBlur stdDeviation="2"/>
<feColorMatrix type="matrix" values="0 0 0 0 0 0 0 0 0 0 0 0 0 0 0 0 0 0 0.25 0"/>
<feBlend mode="normal" in2="BackgroundImageFix" result="effect1_dropShadow"/>
<feBlend mode="normal" in="SourceGraphic" in2="effect1_dropShadow" result="shape"/>
</filter>
<clipPath id="clip0">
<rect x="147" y="161" width="82" height="82" fill="white"/>
</clipPath>
</defs>
</svg>
